<mxfile host="app.diagrams.net" agent="Mozilla/5.0 (Macintosh; Intel Mac OS X 10_15_7) AppleWebKit/537.36 (KHTML, like Gecko) Chrome/133.0.0.0 Safari/537.36" version="26.1.0">
  <diagram id="Ht1M8jgEwFfnCIfOTk4-" name="Page-1">
    <mxGraphModel dx="1789" dy="1349" grid="1" gridSize="10" guides="1" tooltips="1" connect="1" arrows="1" fold="1" page="1" pageScale="1" pageWidth="1169" pageHeight="827" math="0" shadow="0">
      <root>
        <mxCell id="0" />
        <mxCell id="1" parent="0" />
        <mxCell id="o-EwrLxDlOVlQtrlVzl7-3" style="edgeStyle=none;curved=1;rounded=0;orthogonalLoop=1;jettySize=auto;html=1;fontSize=12;startSize=8;endSize=8;" edge="1" parent="1" source="o-EwrLxDlOVlQtrlVzl7-1" target="o-EwrLxDlOVlQtrlVzl7-2">
          <mxGeometry relative="1" as="geometry">
            <Array as="points">
              <mxPoint x="250" y="270" />
            </Array>
          </mxGeometry>
        </mxCell>
        <mxCell id="o-EwrLxDlOVlQtrlVzl7-4" value="push the code" style="edgeLabel;html=1;align=center;verticalAlign=middle;resizable=0;points=[];fontSize=12;" vertex="1" connectable="0" parent="o-EwrLxDlOVlQtrlVzl7-3">
          <mxGeometry x="0.1807" relative="1" as="geometry">
            <mxPoint x="-25" as="offset" />
          </mxGeometry>
        </mxCell>
        <mxCell id="o-EwrLxDlOVlQtrlVzl7-25" style="edgeStyle=none;curved=1;rounded=0;orthogonalLoop=1;jettySize=auto;html=1;fontSize=12;startSize=8;endSize=8;entryX=0;entryY=0.5;entryDx=0;entryDy=0;" edge="1" parent="1" source="o-EwrLxDlOVlQtrlVzl7-1" target="o-EwrLxDlOVlQtrlVzl7-24">
          <mxGeometry relative="1" as="geometry">
            <mxPoint x="105" y="570" as="targetPoint" />
            <Array as="points">
              <mxPoint x="-10" y="630" />
            </Array>
          </mxGeometry>
        </mxCell>
        <mxCell id="o-EwrLxDlOVlQtrlVzl7-31" value="create image" style="edgeLabel;html=1;align=center;verticalAlign=middle;resizable=0;points=[];fontSize=12;" vertex="1" connectable="0" parent="o-EwrLxDlOVlQtrlVzl7-25">
          <mxGeometry x="0.3686" y="36" relative="1" as="geometry">
            <mxPoint as="offset" />
          </mxGeometry>
        </mxCell>
        <mxCell id="o-EwrLxDlOVlQtrlVzl7-1" value="me" style="shape=umlActor;verticalLabelPosition=bottom;verticalAlign=top;html=1;outlineConnect=0;" vertex="1" parent="1">
          <mxGeometry x="90" y="241" width="30" height="60" as="geometry" />
        </mxCell>
        <mxCell id="o-EwrLxDlOVlQtrlVzl7-2" value="github repo&amp;amp;github action" style="shape=image;html=1;verticalAlign=top;verticalLabelPosition=bottom;labelBackgroundColor=#ffffff;imageAspect=0;aspect=fixed;image=https://cdn1.iconfinder.com/data/icons/picons-social/57/github_rounded-128.png" vertex="1" parent="1">
          <mxGeometry x="280" y="206" width="128" height="128" as="geometry" />
        </mxCell>
        <mxCell id="o-EwrLxDlOVlQtrlVzl7-15" value="ECR Repository&lt;div&gt;hw06-python-flask-zhisong-huang-zhh20013&lt;/div&gt;" style="sketch=0;points=[[0,0,0],[0.25,0,0],[0.5,0,0],[0.75,0,0],[1,0,0],[0,1,0],[0.25,1,0],[0.5,1,0],[0.75,1,0],[1,1,0],[0,0.25,0],[0,0.5,0],[0,0.75,0],[1,0.25,0],[1,0.5,0],[1,0.75,0]];outlineConnect=0;fontColor=#232F3E;fillColor=#ED7100;strokeColor=#ffffff;dashed=0;verticalLabelPosition=bottom;verticalAlign=top;align=center;html=1;fontSize=12;fontStyle=0;aspect=fixed;shape=mxgraph.aws4.resourceIcon;resIcon=mxgraph.aws4.ecr;" vertex="1" parent="1">
          <mxGeometry x="510" y="216" width="118" height="118" as="geometry" />
        </mxCell>
        <mxCell id="o-EwrLxDlOVlQtrlVzl7-16" style="edgeStyle=none;curved=1;rounded=0;orthogonalLoop=1;jettySize=auto;html=1;entryX=0;entryY=0.5;entryDx=0;entryDy=0;entryPerimeter=0;fontSize=12;startSize=8;endSize=8;" edge="1" parent="1" source="o-EwrLxDlOVlQtrlVzl7-2" target="o-EwrLxDlOVlQtrlVzl7-15">
          <mxGeometry relative="1" as="geometry" />
        </mxCell>
        <mxCell id="o-EwrLxDlOVlQtrlVzl7-17" value="push image" style="edgeLabel;html=1;align=center;verticalAlign=middle;resizable=0;points=[];fontSize=12;" vertex="1" connectable="0" parent="o-EwrLxDlOVlQtrlVzl7-16">
          <mxGeometry x="-0.2697" y="4" relative="1" as="geometry">
            <mxPoint x="1" as="offset" />
          </mxGeometry>
        </mxCell>
        <mxCell id="o-EwrLxDlOVlQtrlVzl7-34" style="edgeStyle=none;curved=1;rounded=0;orthogonalLoop=1;jettySize=auto;html=1;fontSize=12;startSize=8;endSize=8;" edge="1" parent="1" source="o-EwrLxDlOVlQtrlVzl7-18" target="o-EwrLxDlOVlQtrlVzl7-19">
          <mxGeometry relative="1" as="geometry" />
        </mxCell>
        <mxCell id="o-EwrLxDlOVlQtrlVzl7-18" value="ECS Cluster&lt;div&gt;port 5001&lt;/div&gt;" style="sketch=0;points=[[0,0,0],[0.25,0,0],[0.5,0,0],[0.75,0,0],[1,0,0],[0,1,0],[0.25,1,0],[0.5,1,0],[0.75,1,0],[1,1,0],[0,0.25,0],[0,0.5,0],[0,0.75,0],[1,0.25,0],[1,0.5,0],[1,0.75,0]];outlineConnect=0;fontColor=#232F3E;fillColor=#ED7100;strokeColor=#ffffff;dashed=0;verticalLabelPosition=bottom;verticalAlign=top;align=center;html=1;fontSize=12;fontStyle=0;aspect=fixed;shape=mxgraph.aws4.resourceIcon;resIcon=mxgraph.aws4.ecs;" vertex="1" parent="1">
          <mxGeometry x="720" y="216" width="119" height="119" as="geometry" />
        </mxCell>
        <mxCell id="o-EwrLxDlOVlQtrlVzl7-19" value="&lt;div&gt;S3 Bucket&lt;/div&gt;hw06-zhh20013-1" style="sketch=0;outlineConnect=0;fontColor=#232F3E;gradientColor=none;fillColor=#7AA116;strokeColor=none;dashed=0;verticalLabelPosition=bottom;verticalAlign=top;align=center;html=1;fontSize=12;fontStyle=0;aspect=fixed;pointerEvents=1;shape=mxgraph.aws4.bucket;" vertex="1" parent="1">
          <mxGeometry x="900" y="236.5" width="75" height="78" as="geometry" />
        </mxCell>
        <mxCell id="o-EwrLxDlOVlQtrlVzl7-22" style="edgeStyle=none;curved=1;rounded=0;orthogonalLoop=1;jettySize=auto;html=1;exitX=1;exitY=0.5;exitDx=0;exitDy=0;exitPerimeter=0;entryX=0;entryY=0.5;entryDx=0;entryDy=0;entryPerimeter=0;fontSize=12;startSize=8;endSize=8;" edge="1" parent="1" source="o-EwrLxDlOVlQtrlVzl7-15" target="o-EwrLxDlOVlQtrlVzl7-18">
          <mxGeometry relative="1" as="geometry" />
        </mxCell>
        <mxCell id="o-EwrLxDlOVlQtrlVzl7-23" value="pull image" style="edgeLabel;html=1;align=center;verticalAlign=middle;resizable=0;points=[];fontSize=12;" vertex="1" connectable="0" parent="o-EwrLxDlOVlQtrlVzl7-22">
          <mxGeometry x="0.1772" relative="1" as="geometry">
            <mxPoint x="-16" as="offset" />
          </mxGeometry>
        </mxCell>
        <mxCell id="o-EwrLxDlOVlQtrlVzl7-24" value="Flask App" style="shape=image;html=1;verticalAlign=top;verticalLabelPosition=bottom;labelBackgroundColor=#ffffff;imageAspect=0;aspect=fixed;image=https://cdn0.iconfinder.com/data/icons/social-media-2104/24/social_media_social_media_logo_docker-128.png" vertex="1" parent="1">
          <mxGeometry x="290" y="500" width="128" height="128" as="geometry" />
        </mxCell>
        <mxCell id="o-EwrLxDlOVlQtrlVzl7-32" style="edgeStyle=none;curved=1;rounded=0;orthogonalLoop=1;jettySize=auto;html=1;entryX=0;entryY=0.75;entryDx=0;entryDy=0;entryPerimeter=0;fontSize=12;startSize=8;endSize=8;" edge="1" parent="1" source="o-EwrLxDlOVlQtrlVzl7-24" target="o-EwrLxDlOVlQtrlVzl7-15">
          <mxGeometry relative="1" as="geometry">
            <Array as="points">
              <mxPoint x="610" y="590" />
            </Array>
          </mxGeometry>
        </mxCell>
        <mxCell id="o-EwrLxDlOVlQtrlVzl7-33" value="push image" style="edgeLabel;html=1;align=center;verticalAlign=middle;resizable=0;points=[];fontSize=12;" vertex="1" connectable="0" parent="o-EwrLxDlOVlQtrlVzl7-32">
          <mxGeometry x="0.2332" y="31" relative="1" as="geometry">
            <mxPoint as="offset" />
          </mxGeometry>
        </mxCell>
        <mxCell id="o-EwrLxDlOVlQtrlVzl7-36" value="CloudWatch" style="sketch=0;points=[[0,0,0],[0.25,0,0],[0.5,0,0],[0.75,0,0],[1,0,0],[0,1,0],[0.25,1,0],[0.5,1,0],[0.75,1,0],[1,1,0],[0,0.25,0],[0,0.5,0],[0,0.75,0],[1,0.25,0],[1,0.5,0],[1,0.75,0]];points=[[0,0,0],[0.25,0,0],[0.5,0,0],[0.75,0,0],[1,0,0],[0,1,0],[0.25,1,0],[0.5,1,0],[0.75,1,0],[1,1,0],[0,0.25,0],[0,0.5,0],[0,0.75,0],[1,0.25,0],[1,0.5,0],[1,0.75,0]];outlineConnect=0;fontColor=#232F3E;fillColor=#E7157B;strokeColor=#ffffff;dashed=0;verticalLabelPosition=bottom;verticalAlign=top;align=center;html=1;fontSize=12;fontStyle=0;aspect=fixed;shape=mxgraph.aws4.resourceIcon;resIcon=mxgraph.aws4.cloudwatch_2;" vertex="1" parent="1">
          <mxGeometry x="850" y="460" width="78" height="78" as="geometry" />
        </mxCell>
        <mxCell id="o-EwrLxDlOVlQtrlVzl7-37" style="edgeStyle=none;curved=1;rounded=0;orthogonalLoop=1;jettySize=auto;html=1;entryX=0.5;entryY=0;entryDx=0;entryDy=0;entryPerimeter=0;fontSize=12;startSize=8;endSize=8;" edge="1" parent="1" source="o-EwrLxDlOVlQtrlVzl7-18" target="o-EwrLxDlOVlQtrlVzl7-36">
          <mxGeometry relative="1" as="geometry" />
        </mxCell>
        <mxCell id="o-EwrLxDlOVlQtrlVzl7-38" value="I have no idea why it&#39;s curve line and i don&#39;t want to fix it&lt;br&gt;I hate this thing :)" style="text;strokeColor=none;fillColor=none;html=1;align=center;verticalAlign=middle;whiteSpace=wrap;rounded=0;fontSize=16;" vertex="1" parent="1">
          <mxGeometry x="100" y="413" width="270" height="30" as="geometry" />
        </mxCell>
      </root>
    </mxGraphModel>
  </diagram>
</mxfile>
